<svg viewBox="0 0 174.51 174.51" xmlns="http://www.w3.org/2000/svg"><path d="m0 0h174.51v174.51h-174.51z" fill="#1e1e1e"/><path d="m87.25 133.38h15.4v15.4h-15.4z" fill="#f24a00"/><g fill="#fff"><path d="m87.25 66.66h15.4v61.59h-15.4z"/><path d="m61.59 133.38c-14.15 0-25.66-11.51-25.66-25.66s11.51-25.66 25.66-25.66 25.66 11.51 25.66 25.66v20.53h9.89c3.5-6.04 5.5-13.05 5.5-20.53 0-22.68-18.38-41.06-41.06-41.06s-41.06 18.38-41.06 41.06 18.38 41.06 41.06 41.06c7.48 0 14.49-2.01 20.53-5.51v-20.17c-4.69 6.24-12.14 10.28-20.53 10.28z"/><path d="m118.09 66.66h15.4v82.12h-15.4z"/></g><g fill="#f24a00"><path d="m112.79 42.94h15.4v15.4h-15.4z" transform="matrix(.70710678 -.70710678 .70710678 .70710678 -.51 100.03)"/><path d="m131.78 25.97h13.34v13.34h-13.34z" transform="matrix(.8660254 -.5 .5 .8660254 2.23 73.6)"/><path d="m114.84 9.03h11.29v11.29h-11.29z" transform="matrix(.96592583 -.25881905 .25881905 .96592583 .31 31.68)"/></g></svg>

